<svg width="1392" height="1775" viewBox="0 0 1392 1775" fill="none" xmlns="http://www.w3.org/2000/svg">
<path d="M1314.57 692.801C1372.65 872.719 1400.95 1062.12 1386.09 1230.38C1371.23 1398.64 1313.23 1545.54 1198.92 1640.81C1085.26 1735.42 914.935 1778.61 740.657 1772.42C566.4 1766.23 388.527 1710.67 259.89 1608.17C4.10879 1401.82 -55.5245 1007.16 54.9367 654.492C110.151 478.919 207.84 313.978 323.889 193.847C439.981 73.6716 574.185 -1.40451 702.422 2.11887L702.477 0.119628L702.422 2.11888C831.343 5.64169 954.932 87.7536 1061.12 214.483C1167.27 341.17 1255.79 512.171 1314.57 692.801Z" stroke="url(#paint0_linear_925_83383)" stroke-width="4"/>
<defs>
<linearGradient id="paint0_linear_925_83383" x1="-696" y1="887.5" x2="1027.83" y2="2239.37" gradientUnits="userSpaceOnUse">
<stop stop-color="#FFE16A"/>
<stop offset="0.666667" stop-color="#B78103"/>
<stop offset="1" stop-color="#B78103"/>
</linearGradient>
</defs>
</svg>
